<svg width="105" height="65" viewBox="0 0 105 65" fill="none" xmlns="http://www.w3.org/2000/svg">
<path d="M0 19.6194C0 19.0194 0.5 18.5194 1 18.4194L5 17.6194C7.3 17.1194 9.3 18.4194 9.8 20.6194C10.4 23.5194 8.4 26.3194 6.3 27.1194L6 27.2194L10.9 32.3194C11.1 32.5194 11.1 32.6194 11.2 32.7194C11.3 33.3194 10.9 33.9194 10.3 34.0194C10 34.1194 9.7 34.0194 9.6 33.8194L3.5 27.5194C3.4 27.4194 3.3 27.2194 3.2 27.1194C3.1 26.4194 3.6 25.8194 4.1 25.7194L4.9 25.5194C6.8 25.1194 8 23.1194 7.6 21.3194C7.3 20.0194 6.2 19.2194 4.9 19.5194L1.9 20.1194L2.2 34.6194C2.2 35.2194 1.8 35.8194 1.2 35.9194C0.6 36.0194 0.2 35.6194 0.2 35.0194L0 19.6194Z" fill="black"/>
<path d="M13.3 16.9192C13.3 16.3192 13.7 15.8192 14.3 15.7192L21.1 14.3192C21.6 14.2192 21.9 14.5192 22 14.9192C22.1 15.6192 21.6 16.2192 21.1 16.3192L15.4 17.5192V23.2192L21.1 22.0192C21.6 21.9192 21.9 22.2192 22 22.6192C22.1 23.3192 21.6 23.9192 21.1 24.0192L15.4 25.2192V30.9192L21.1 29.7192C21.6 29.6192 21.9 29.9192 22 30.3192C22.1 31.0192 21.6 31.6192 21.1 31.7192L14.4 33.1192C13.9 33.2192 13.4 32.8192 13.4 32.2192L13.3 16.9192Z" fill="black"/>
<path d="M36.1 11.5193C36.3 11.2193 36.7 11.0193 36.9 10.9193C37.5 10.8193 38 11.2193 38 11.8193V20.1193L45.2 9.71932C45.4 9.41932 45.8 9.21932 46 9.11932C46.6 9.01932 47.1 9.41932 47.1 10.0193L47.2 25.5193C47.2 26.1193 46.8 26.6193 46.2 26.8193C45.7 26.9193 45.2 26.5193 45.2 25.9193L45.1 13.1193L38 23.4193V27.3193C38 27.9193 37.6 28.4193 37 28.6193C36.5 28.7193 36 28.3193 36 27.7193L35.9 14.9193L25.3 30.6193C25.1 30.9193 24.8 31.1193 24.5 31.2193C24 31.3193 23.6 30.9193 23.5 30.5193C23.4 30.2193 23.5 29.9193 23.7 29.5193L36.1 11.5193Z" fill="black"/>
<path d="M61.7 6.31942C61.9 6.01942 62.3 5.81942 62.5 5.71942C63.1 5.61942 63.6 6.01942 63.6 6.61942L63.7 22.1194C63.7 22.7194 63.3 23.2194 62.7 23.4194C62.2 23.5194 61.7 23.1194 61.7 22.5194V19.1194L57.5 19.9194C57 20.0194 56.7 19.7194 56.6 19.3194C56.5 18.6194 57 18.0194 57.5 17.9194L61.7 17.1194L61.6 9.71942L51 25.4194C50.8 25.7194 50.5 25.9194 50.2 26.0194C49.7 26.1194 49.3 25.7194 49.2 25.3194C49.1 25.0194 49.2 24.7194 49.4 24.3194L61.7 6.31942Z" fill="black"/>
<path d="M66.9 6.1192C66.9 5.5192 67.3 5.0192 67.9 4.9192L72.8 3.9192C76.9 3.1192 80.3 5.4192 81.1 9.2192C82.1 14.2192 78.7 20.0192 73.3 21.1192L68.1 22.2192C67.6 22.3192 67.1 21.9192 67.1 21.3192L66.9 6.1192ZM72.9 19.2192C77.2 18.3192 79.8 13.8192 79 9.9192C78.4 7.0192 75.9 5.2192 72.9 5.8192L68.9 6.6192L69 20.0192L72.9 19.2192Z" fill="black"/>
<path d="M83.8 2.61938C83.8 2.01938 84.2 1.51938 84.8 1.41938L91.6 0.0193816C92.1 -0.0806184 92.4 0.21938 92.5 0.61938C92.6 1.31938 92.1 1.91938 91.6 2.01938L85.9 3.21938V8.91938L91.6 7.71938C92.1 7.61938 92.4 7.91938 92.5 8.31938C92.6 9.01938 92.1 9.61938 91.6 9.71938L85.9 10.9194V16.6194L91.6 15.4194C92.1 15.3194 92.4 15.6194 92.5 16.0194C92.6 16.7194 92.1 17.3194 91.6 17.4194L84.9 18.8194C84.4 18.9194 83.9 18.5194 83.9 17.9194L83.8 2.61938Z" fill="black"/>
<path d="M5.8 48.0192C5.8 47.4192 6.2 46.9192 6.8 46.7192C7.3 46.6192 7.8 47.0192 7.8 47.6192L7.9 60.3192L15 50.0192V46.1192C15 45.5192 15.4 45.0192 16 44.8192C16.5 44.7192 17 45.1192 17 45.7192L17.1 58.4192L27.8 42.8192C28 42.5192 28.3 42.3192 28.6 42.2192C29.1 42.1192 29.5 42.5192 29.6 42.9192C29.7 43.2192 29.6 43.5192 29.4 43.9192L17.1 61.9192C16.9 62.2192 16.5 62.4192 16.3 62.5192C15.7 62.6192 15.2 62.2192 15.2 61.6192V53.4192L8 63.8192C7.8 64.1192 7.4 64.3192 7.2 64.4192C6.6 64.5192 6.1 64.1192 6.1 63.5192L5.8 48.0192Z" fill="black"/>
<path d="M34.6 41.5196C34.8 41.2196 35.2 41.0196 35.4 40.9196C36 40.8196 36.5 41.2196 36.5 41.8196L36.6 57.3196C36.6 57.9196 36.2 58.4196 35.6 58.6196C35.1 58.7196 34.6 58.3196 34.6 57.7196V54.3196L30.4 55.1196C29.9 55.2196 29.6 54.9196 29.5 54.5196C29.4 53.8196 29.9 53.2196 30.4 53.1196L34.6 52.3196L34.5 44.9196L23.9 60.5196C23.7 60.8196 23.4 61.0196 23.1 61.1196C22.6 61.2196 22.2 60.8196 22.1 60.4196C22 60.1196 22.1 59.8196 22.3 59.4196L34.6 41.5196Z" fill="black"/>
<path d="M39.8 41.2195C39.8 40.6195 40.3 40.1195 40.8 40.0195L44.8 39.2195C47.1 38.7195 49.1 40.0195 49.6 42.2195C50.2 45.1195 48.2 47.9195 46.1 48.7195L45.8 48.8195L50.7 53.9195C50.9 54.1195 50.9 54.2195 51 54.3195C51.1 54.9195 50.7 55.5195 50.1 55.6195C49.8 55.7195 49.5 55.6195 49.4 55.4195L43.3 49.1195C43.2 49.0195 43.1 48.8195 43 48.7195C42.9 48.0195 43.4 47.4195 43.9 47.3195L44.7 47.1195C46.6 46.7195 47.8 44.7195 47.4 42.9195C47.1 41.6195 46 40.8195 44.7 41.1195L41.7 41.7195L41.8 56.2195C41.8 56.8195 41.4 57.4195 40.8 57.5195C40.2 57.6195 39.8 57.2195 39.8 56.6195V41.2195Z" fill="black"/>
<path d="M52.1 51.3195C52 50.8195 52.4 50.1195 53 50.0195C53.4 49.9195 53.9 50.1195 54 50.8195C54.2 51.6195 55.2 52.7195 57.1 52.3195C58.9 51.9195 60.5 50.3195 60.1 48.2195C59.9 47.1195 58.9 46.4195 57.3 46.2195L56.2 46.0195C54 45.7195 52.6 44.8195 52.2 42.9195C51.5 39.6195 53.9 37.0195 56.8 36.4195C59.7 35.8195 61.6 37.5195 61.8 39.2195C61.9 39.8195 61.4 40.4195 60.8 40.6195C60.5 40.7195 60 40.6195 59.8 40.0195C59.6 38.8195 58.5 38.0195 56.9 38.4195C55.1 38.8195 53.7 40.5195 54.1 42.4195C54.3 43.4195 55.2 44.1195 56.9 44.2195L57.8 44.3195C60.1 44.6195 61.5 45.5195 61.9 47.4195C62.6 50.8195 60.1 53.5195 57.1 54.2195C54.4 54.8195 52.3 52.9195 52.1 51.3195Z" fill="black"/>
<path d="M75.7 33.1192C75.9 32.8192 76.3 32.6192 76.5 32.5192C77.1 32.4192 77.6 32.8192 77.6 33.4192L77.7 48.9192C77.7 49.5192 77.3 50.0192 76.7 50.2192C76.2 50.3192 75.7 49.9192 75.7 49.3192V45.9192L71.5 46.7192C71 46.8192 70.7 46.5192 70.6 46.1192C70.5 45.4192 71 44.8192 71.5 44.7192L75.7 43.9192L75.6 36.6192L64.9 52.2192C64.7 52.5192 64.4 52.7192 64.1 52.8192C63.6 52.9192 63.2 52.5192 63.1 52.1192C63 51.8192 63.1 51.5192 63.3 51.1192L75.7 33.1192Z" fill="black"/>
<path d="M80.8 32.7194C80.8 32.1194 81.2 31.6194 81.8 31.4194C82.3 31.3194 82.8 31.7194 82.8 32.3194L82.9 45.0194L90 34.7194V30.8194C90 30.2194 90.4 29.7194 91 29.5194C91.5 29.4194 92 29.8194 92 30.4194L92.1 43.1194L102.8 27.6194C103 27.3194 103.3 27.1194 103.6 27.0194C104.1 26.9194 104.5 27.3194 104.6 27.7194C104.7 28.0194 104.6 28.3194 104.4 28.7194L92.1 46.7194C91.9 47.0194 91.5 47.2194 91.3 47.3194C90.7 47.4194 90.2 47.0194 90.2 46.4194V38.2194L83 48.6194C82.8 48.9194 82.4 49.1194 82.2 49.2194C81.6 49.3194 81.1 48.9194 81.1 48.3194L80.8 32.7194Z" fill="black"/>
</svg>
